PathFileType	4	(X/Y/Z)	Patient4_TMGait_0pt4_03_left_26.trc.trc
DataRate	CameraRate	NumFrames	NumMarkers	Units	OrigDataRate	OrigDataStartFrame	OrigNumFrames
75.675675675676	75.675675675676	4	33	mm	75.675675675676	36	       141
Frame#	Time	Sacral			L.Shoulder			Chest			R.Shoulder			Neck			R.ASIS			L.ASIS			R.Thigh.Superior			R.Thigh.Lateral			R.Thigh.Inferior			R.Patella			L.Thigh.Superior			L.Thigh.Lateral			L.Thigh.Inferior			L.Patella			L.Shank.Superior			L.Shank.Lateral			L.Shank.Inferior			R.Shank.Superior			R.Shank.Lateral			R.Shank.Inferior			R.Heel			R.Midfoot.Superior			R.Midfoot.Lateral			R.Toe			L.Heel			L.Midfoot.Lateral			L.Midfoot.Superior			L.Toe			L.Elbow			L.Wrist			R.Elbow			R.Wrist			
		X1	Y1	Z1	X2	Y2	Z2	X3	Y3	Z3	X4	Y4	Z4	X5	Y5	Z5	X6	Y6	Z6	X7	Y7	Z7	X8	Y8	Z8	X9	Y9	Z9	X10	Y10	Z10	X11	Y11	Z11	X12	Y12	Z12	X13	Y13	Z13	X14	Y14	Z14	X15	Y15	Z15	X16	Y16	Z16	X17	Y17	Z17	X18	Y18	Z18	X19	Y19	Z19	X20	Y20	Z20	X21	Y21	Z21	X22	Y22	Z22	X23	Y23	Z23	X24	Y24	Z24	X25	Y25	Z25	X26	Y26	Z26	X27	Y27	Z27	X28	Y28	Z28	X29	Y29	Z29	X30	Y30	Z30	X31	Y31	Z31	X32	Y32	Z32	X33	Y33	Z33	

36	34.702500000000	846.967406359746	1003.612772536867	457.896686105931	988.090855685239	1427.078683825840	248.721062587185	1117.625969989781	1364.399088735836	392.023194698181	1062.910368220057	1440.029513022528	576.237664074641	995.434915423154	1492.323282688700	402.640556907868	1087.474557722487	936.872744246462	544.260881345439	1040.564712257558	959.645028550753	273.533785788750	1096.453688433312	725.082274913646	516.686020466695	1006.747006272861	623.421789461629	586.079748966490	1068.378731867546	560.660972486856	502.960860884751	1055.326406990847	462.053126015070	517.369841203438	1113.643118437770	763.658569284746	300.348063713279	1039.212993424841	637.524675943054	241.301564346265	1138.012917482576	571.382618964004	297.260928087753	1146.886660082104	501.769572431726	303.128464956423	1126.303622956234	428.029777495983	293.697143289832	1044.162916175562	306.963687660671	244.266775802024	1112.769809244780	199.078135708168	307.201700473497	995.232816182023	387.097062709580	526.813730351070	895.647094119891	314.732537070648	595.033453215816	900.465936486789	209.449321001278	535.617621125429	722.618446703766	80.891715226742	514.872374303628	899.338779771130	100.612948331555	549.526696769357	803.463702293491	55.834740697288	587.651560078898	1007.736014614600	37.197348697528	577.174996180151	1001.156851836895	38.338301317853	353.190484837086	1070.140625568939	35.800707112748	268.252071342009	1153.606068268450	98.573278315652	290.755523850201	1280.458032246132	49.823494959156	254.391429894254	915.263370724186	1078.884946240494	144.026886600067	978.074482836934	823.698401213939	129.877192006601	1140.915264525194	1101.168531057364	694.546662501956	1369.525214794026	1008.966655944797	623.947862026403	
37	34.715714285714	847.143660209062	1003.824042719633	454.520808243832	988.685833938855	1427.338997859210	245.216892063433	1117.586075858079	1365.141147905655	389.239521325108	1061.833658017105	1440.850507655231	573.092515750972	995.160127321596	1492.823505624469	398.954903879403	1087.315592690086	937.476660969393	541.752837681612	1041.594019371433	960.195662385848	270.944908794416	1099.722747434329	726.193979823201	514.121129578405	1012.309128783798	623.236722390594	583.685038689100	1075.571094753462	561.168593194812	500.700397863531	1063.705801511730	460.916424544283	516.474470396274	1113.742560843793	763.162902153997	297.190940499042	1037.714527227512	637.416738405855	239.306723323411	1136.129609279978	570.658898357989	295.047225821488	1144.558926141841	501.230565872931	301.597581239299	1123.664745394878	427.471832159936	292.391219009392	1040.890598678401	306.741816852234	243.319491305280	1108.537415718684	198.702884521920	306.844514275840	1001.266793634731	386.980421338569	525.970675839900	899.168872351127	317.839664147859	593.803393652288	901.748235092400	211.988416604542	535.461930773806	720.403153214471	88.899373018778	514.877550898126	897.545042220903	101.839621105582	549.753321727699	800.069671555653	60.581377115469	587.528534879528	1002.755921321133	36.784662394181	577.117127227797	995.937869088717	38.284371854000	353.157337656326	1064.889206302652	35.711070546103	268.163444902568	1148.373493759562	98.444568539816	290.721377388101	1275.244838615646	49.700508532381	254.307647009743	920.496060580766	1078.334101603734	139.196201498023	988.303175701146	824.470408511661	124.399274440422	1134.254319749367	1100.898032216253	693.072876680769	1357.206782711161	993.132174436483	624.669423832030	
38	34.728928571429	847.193528397004	1003.930128624743	451.150087021347	989.478770803022	1427.522511379546	241.723200280310	1117.571999608604	1365.766814495709	386.594421484704	1060.618504353795	1441.538708985871	570.035787015635	994.872082720711	1493.239512562975	395.283393707071	1086.978065707339	937.977379783746	539.334774777931	1042.567913113140	960.668709748411	268.471488512508	1103.414324946250	727.446604941540	511.608685454169	1018.563945504038	623.072243365604	581.390325286191	1083.567156080507	561.819842591436	498.541508193272	1072.940609209277	459.991948678403	515.592819323993	1113.589019335487	762.470009435290	294.219760976643	1036.115085466739	637.281058554328	237.247068303355	1133.993389632264	569.887132392507	292.974980293833	1141.969725929926	500.624984603367	300.049257766306	1120.780212667709	426.865455303709	291.058169508830	1037.452415765543	306.425153858291	242.340065066568	1104.182954563876	198.289076346146	306.469385409730	1008.220684692547	387.008458113232	525.145416041287	903.620951732726	321.311842099004	592.584690485728	903.808362787898	214.955052221209	535.330571541613	718.943919707410	98.046239699168	514.828921283222	896.230097821903	103.393111288578	549.945990598775	797.117879216120	66.223807585963	587.404310785998	997.763940778361	36.297566933180	577.086480300304	990.669250522553	38.224545816527	353.148038003421	1059.586036969644	35.603011115785	268.097981491360	1143.120877864518	98.255039845578	290.718725091913	1270.000943784180	49.459670670784	254.259143848707	925.781759647964	1077.836172313246	134.346729335716	998.816099898590	825.444131671985	119.045695588709	1127.376788800440	1100.580878050199	691.581975006775	1343.602921931316	977.405567039139	625.687739621701	
39	34.742142857143	847.093030999456	1003.925327004397	447.812863215583	990.459034561760	1427.612646505389	238.283632206636	1117.588463602237	1366.243302139814	384.112423130879	1059.304827926938	1442.074771739662	567.096665383150	994.596301215724	1493.554923183927	391.678028610170	1086.445708008739	938.363336152858	537.008300668597	1043.442938192934	961.066645043382	266.106102986871	1107.468194749767	728.872525868582	509.150974060470	1025.441275174895	622.977973535669	579.211658199662	1092.279046932357	562.667450387934	496.510358765198	1082.925959761251	459.356338612194	514.707021525047	1113.205182874730	761.667535781577	291.498641645618	1034.524434921916	637.153413306025	235.121981758357	1131.708653801315	569.115004696150	291.048021136375	1139.206587882497	499.976404867742	298.490913665247	1117.736857464225	426.226189615865	289.704847582122	1033.931047744538	306.044640911281	241.297725563432	1099.752483304661	197.850830918834	306.067799922417	1016.022184228342	387.230514536737	524.301918019421	908.982683703151	325.168595645288	591.372097783748	906.633924642498	218.386762194746	535.197185431369	718.317841072327	108.357171717151	514.705730253334	895.400956408044	105.382786051409	550.086731899789	794.673889779030	72.841461722032	587.264308774992	992.788780971166	35.705157469426	577.094032774910	985.369551552500	38.167437084533	353.139782680499	1054.253138488636	35.488136067412	268.036832862447	1137.861854788125	98.028363554586	290.726734673190	1264.744533999168	49.133336221741	254.231071549775	931.148130511915	1077.374622875774	129.494703115537	1009.597899190042	826.608662574194	113.839256808809	1120.234422664721	1100.164884402081	690.043890221039	1328.732998270069	961.952352565650	626.997775018169	
